<?xml version="1.0" standalone="no"?>
<!DOCTYPE svg PUBLIC "-//W3C//DTD SVG 20010904//EN"
 "http://www.w3.org/TR/2001/REC-SVG-20010904/DTD/svg10.dtd">
<svg version="1.0" xmlns="http://www.w3.org/2000/svg"
 width="16.000000pt" height="16.000000pt" viewBox="0 0 16.000000 16.000000"
 preserveAspectRatio="xMidYMid meet">
<metadata>
Created by potrace 1.11, written by Peter Selinger 2001-2013
</metadata>
<g transform="translate(0.000000,16.000000) scale(0.002286,-0.002286)"
fill="#000000" stroke="none">
<path d="M2423 5612 c-513 -514 -933 -940 -933 -947 0 -7 16 -48 36 -91 20
-44 162 -362 316 -709 154 -346 291 -652 303 -680 25 -53 186 -416 386 -867
66 -150 129 -291 139 -313 10 -22 45 -101 78 -175 33 -74 71 -160 85 -190 13
-30 48 -109 77 -175 29 -66 70 -157 91 -203 22 -46 39 -85 39 -87 0 -3 14 -35
31 -72 25 -55 175 -391 261 -586 12 -26 24 -47 27 -47 7 0 7 6067 1 6072 -3 2
-425 -417 -937 -930z"/>
<path d="M3639 6546 c-5 -5 -3 -6076 2 -6076 5 0 43 75 45 90 0 3 17 40 37 84
20 43 37 81 37 83 0 3 20 47 45 100 25 52 45 97 45 99 0 3 12 31 26 62 15 31
173 386 351 787 368 825 357 801 390 875 14 30 32 71 40 90 9 19 24 53 34 75
9 22 92 209 184 415 92 206 173 389 180 405 8 17 26 57 40 90 15 33 45 101 67
150 22 50 50 113 63 140 44 96 75 166 75 169 0 3 16 39 36 83 20 43 42 92 49
108 47 107 109 244 120 267 l13 27 -939 939 c-516 517 -939 939 -940 938z"/>
</g>
</svg>
