<?xml version="1.0" standalone="no"?>
<!DOCTYPE svg PUBLIC "-//W3C//DTD SVG 20010904//EN"
 "http://www.w3.org/TR/2001/REC-SVG-20010904/DTD/svg10.dtd">
<svg version="1.0" xmlns="http://www.w3.org/2000/svg"
 width="16.000000pt" height="16.000000pt" viewBox="0 0 16.000000 16.000000"
 preserveAspectRatio="xMidYMid meet">
<metadata>
Created by potrace 1.11, written by Peter Selinger 2001-2013
</metadata>
<g transform="translate(0.000000,16.000000) scale(0.002286,-0.002286)"
fill="#000000" stroke="none">
<path d="M670 6601 c0 -12 5937 -5943 5941 -5935 3 5 4 830 4 1834 l-1 1824
-165 64 c-90 34 -209 80 -264 102 -160 62 -1224 470 -1290 495 -124 46 -331
126 -350 135 -11 5 -117 46 -235 90 -118 45 -242 92 -275 105 -33 13 -431 166
-885 340 -454 173 -834 320 -845 325 -11 4 -58 23 -105 40 -102 38 -337 128
-365 140 -19 8 -189 73 -680 260 -132 50 -249 95 -260 100 -63 28 -225 87
-225 81z"/>
<path d="M395 6325 c10 -28 295 -769 338 -880 19 -49 61 -157 93 -240 31 -82
65 -170 74 -195 10 -25 31 -81 48 -125 44 -116 380 -994 397 -1035 23 -58 103
-267 340 -885 506 -1320 668 -1741 677 -1765 6 -14 79 -202 162 -419 l152
-395 1811 0 c997 -1 1821 1 1832 4 17 4 -530 556 -2955 2980 -1637 1636 -2973
2966 -2969 2955z"/>
</g>
</svg>
